# xmcd
# 
# Track frame offsets:
#     183
#     12753
#     25748
#     45940
#     63263
#     79335
#     91723
#     106660
#     127708
#     138560
#     161878
#     177588
# 
# Disc length: 2913
# 
# Revision: 5
# Processed by: cddbd v1.5.2PL0 Copyright (c) Steve Scherf et al.
# Submitted via: fre:ac v1.0.17
# 
DISCID=890b5f0c
DTITLE=John Mayall - Blues From Laurel Canyon
DYEAR=1968
DGENRE=Blues
TTITLE0=Vacation
TTITLE1=Walking On Sunset
TTITLE2=Laurel Canyon Home
TTITLE3=2401
TTITLE4=Ready To Ride
TTITLE5=Medicine Man
TTITLE6=Somebody's Acting Like A Child
TTITLE7=The Bear
TTITLE8=Miss James
TTITLE9=First Time Alone
TTITLE10=Long Gone Midnight
TTITLE11=Fly Tomorrow
EXTD=
EXTT0=
EXTT1=
EXTT2=
EXTT3=
EXTT4=
EXTT5=
EXTT6=
EXTT7=
EXTT8=
EXTT9=
EXTT10=
EXTT11=
PLAYORDER=
